<?xml version="1.0" encoding="utf-8"?>
<!-- Generator: Adobe Illustrator 27.5.0, SVG Export Plug-In . SVG Version: 6.00 Build 0)  -->
<svg version="1.1" xmlns="http://www.w3.org/2000/svg" xmlns:xlink="http://www.w3.org/1999/xlink" x="0px" y="0px"
	 viewBox="0 0 800 800" style="enable-background:new 0 0 800 800;" xml:space="preserve">
<g id="background">
	<rect style="fill:#8BD5DC;" width="800" height="800"/>
	<g>
		<path style="fill-rule:evenodd;clip-rule:evenodd;fill:#FFFFFF;" d="M391.352,775.363c0.246-0.144,0.66-0.17,0.635-0.518
			c-0.018-0.346-0.252-1.029,0.433-1.264c0.69-0.232,0.302,0.205,0.065,0.506c-0.237,0.301-0.16,0.486-0.131,0.93
			c0.024,0.438-0.283,0.588-0.748,0.805C391.139,776.041,391.103,775.51,391.352,775.363"/>
		<path style="fill-rule:evenodd;clip-rule:evenodd;fill:#FFFFFF;" d="M380.162,771.449c2.674-0.67,4.346,0.1,4.346,0.1
			l-0.143,0.771c0,0-1.953-0.131-3.505,0.1c-1.547,0.223-2.252,0.713-2.252,0.713l-0.336-0.768
			C378.272,772.365,379.006,771.738,380.162,771.449"/>
		<polygon style="fill-rule:evenodd;clip-rule:evenodd;fill:#FFFFFF;" points="380.963,770.352 381.34,770.215 381.836,771.545 
			381.463,771.69 		"/>
		<path style="fill-rule:evenodd;clip-rule:evenodd;fill:#FFFFFF;" d="M392.741,772.828c0.377-0.022,0.701,0.266,0.724,0.641
			c0.026,0.377-0.261,0.699-0.64,0.725c-0.378,0.023-0.702-0.266-0.725-0.637C392.076,773.178,392.363,772.857,392.741,772.828"/>
		<path style="fill-rule:evenodd;clip-rule:evenodd;fill:#FFFFFF;" d="M369.26,775.414c0.375-0.025,0.701,0.262,0.727,0.637
			c0.021,0.375-0.264,0.693-0.645,0.719c-0.375,0.025-0.697-0.26-0.726-0.633C368.594,775.76,368.883,775.441,369.26,775.414"/>
		<path style="fill-rule:evenodd;clip-rule:evenodd;fill:#FFFFFF;" d="M381.291,768.646c0.6-0.033,1.119,0.414,1.155,1.016
			c0.035,0.592-0.422,1.111-1.022,1.15c-0.603,0.041-1.113-0.412-1.154-1.014C380.228,769.199,380.686,768.684,381.291,768.646"/>
		<g>
			<path style="fill:#FFFFFF;" d="M397.796,776.676h0.685v-0.865c0-0.898,0.11-1.613,0.339-2.144
				c0.225-0.529,0.616-0.914,1.159-1.158c0.543-0.238,1.291-0.359,2.233-0.359c1.683,0,2.517,0.406,2.517,1.236
				c0,0.262-0.09,0.494-0.268,0.678c-0.17,0.191-0.379,0.285-0.616,0.285c-0.111,0-0.308-0.018-0.584-0.065
				c-0.263-0.041-0.502-0.066-0.691-0.066c-0.517,0-0.847,0.156-1.002,0.465c-0.14,0.299-0.216,0.736-0.216,1.309v0.686h0.701
				c1.096,0,1.639,0.324,1.639,0.99c0,0.465-0.139,0.762-0.432,0.893c-0.291,0.125-0.693,0.188-1.207,0.188h-0.701v7.607
				c0,0.565-0.133,0.996-0.41,1.289c-0.266,0.303-0.612,0.453-1.041,0.453c-0.409,0-0.743-0.15-1.019-0.453
				c-0.267-0.293-0.401-0.725-0.401-1.289v-7.607h-0.789c-0.433,0-0.756-0.092-0.991-0.287c-0.232-0.19-0.347-0.443-0.347-0.756
				C396.353,777.016,396.833,776.676,397.796,776.676"/>
			<path style="fill:#FFFFFF;" d="M407.194,783.953v2.4c0,0.578-0.147,1.014-0.416,1.305c-0.272,0.295-0.616,0.438-1.036,0.438
				c-0.423,0-0.761-0.143-1.024-0.445c-0.263-0.293-0.399-0.723-0.399-1.297v-7.996c0-1.291,0.466-1.939,1.396-1.939
				c0.479,0,0.82,0.152,1.033,0.451c0.209,0.307,0.323,0.75,0.349,1.34c0.342-0.59,0.692-1.033,1.053-1.34
				c0.365-0.299,0.845-0.451,1.447-0.451c0.608,0,1.189,0.152,1.756,0.451c0.571,0.307,0.855,0.709,0.855,1.201
				c0,0.354-0.123,0.643-0.36,0.869c-0.246,0.229-0.506,0.344-0.783,0.344c-0.11,0-0.364-0.066-0.767-0.199
				c-0.403-0.125-0.76-0.19-1.067-0.19c-0.42,0-0.765,0.109-1.026,0.328c-0.268,0.225-0.478,0.551-0.627,0.984
				c-0.142,0.436-0.242,0.953-0.302,1.551C407.218,782.361,407.194,783.09,407.194,783.953"/>
			<path style="fill:#FFFFFF;" d="M420.394,782.963h-5.619c0.011,0.654,0.138,1.232,0.394,1.727
				c0.257,0.496,0.601,0.871,1.022,1.127c0.427,0.252,0.892,0.377,1.402,0.377c0.346,0,0.659-0.041,0.944-0.125
				c0.28-0.074,0.558-0.205,0.824-0.377c0.268-0.172,0.51-0.352,0.733-0.553c0.226-0.195,0.519-0.463,0.873-0.799
				c0.153-0.125,0.362-0.189,0.633-0.189c0.295,0,0.531,0.08,0.717,0.246c0.185,0.16,0.272,0.385,0.272,0.684
				c0,0.26-0.099,0.561-0.296,0.908c-0.209,0.352-0.514,0.678-0.926,0.998c-0.414,0.316-0.931,0.588-1.547,0.797
				c-0.621,0.209-1.337,0.313-2.142,0.313c-1.849,0-3.281-0.521-4.302-1.576c-1.023-1.055-1.538-2.478-1.538-4.279
				c0-0.846,0.127-1.637,0.383-2.367c0.248-0.729,0.619-1.344,1.106-1.869c0.482-0.514,1.073-0.912,1.785-1.189
				c0.707-0.275,1.491-0.414,2.355-0.414c1.121,0,2.082,0.234,2.887,0.711c0.8,0.475,1.408,1.084,1.804,1.834
				c0.397,0.752,0.599,1.518,0.599,2.297c0,0.715-0.209,1.185-0.623,1.398C421.722,782.857,421.144,782.963,420.394,782.963
				 M414.774,781.332h5.207c-0.071-0.978-0.332-1.715-0.793-2.201c-0.461-0.486-1.061-0.727-1.815-0.727
				c-0.715,0-1.303,0.24-1.762,0.734C415.151,779.639,414.873,780.367,414.774,781.332"/>
			<path style="fill:#FFFFFF;" d="M432.333,782.963h-5.614c0.008,0.654,0.139,1.232,0.393,1.727
				c0.253,0.496,0.597,0.871,1.019,1.127c0.425,0.252,0.893,0.377,1.406,0.377c0.342,0,0.659-0.041,0.94-0.125
				c0.282-0.074,0.556-0.205,0.826-0.377c0.268-0.172,0.51-0.352,0.735-0.553c0.219-0.195,0.517-0.463,0.871-0.799
				c0.151-0.125,0.362-0.189,0.631-0.189c0.299,0,0.533,0.08,0.722,0.246c0.18,0.16,0.268,0.385,0.268,0.684
				c0,0.26-0.102,0.561-0.303,0.908c-0.197,0.352-0.506,0.678-0.922,0.998c-0.41,0.316-0.929,0.588-1.543,0.797
				c-0.617,0.209-1.339,0.313-2.146,0.313c-1.843,0-3.275-0.521-4.302-1.576c-1.022-1.055-1.535-2.478-1.535-4.279
				c0-0.846,0.126-1.637,0.382-2.367c0.25-0.729,0.618-1.344,1.103-1.869c0.481-0.514,1.077-0.912,1.789-1.189
				c0.706-0.275,1.493-0.414,2.354-0.414c1.12,0,2.081,0.234,2.896,0.711c0.799,0.475,1.399,1.084,1.795,1.834
				c0.396,0.752,0.603,1.518,0.603,2.297c0,0.715-0.211,1.185-0.621,1.398C433.663,782.857,433.083,782.963,432.333,782.963
				 M426.719,781.332h5.202c-0.067-0.978-0.336-1.715-0.791-2.201c-0.465-0.486-1.064-0.727-1.815-0.727
				c-0.717,0-1.301,0.24-1.765,0.734C427.094,779.639,426.81,780.367,426.719,781.332"/>
			<path style="fill:#FFFFFF;" d="M438.622,778.033v0.346c0.537-0.664,1.104-1.152,1.69-1.467c0.57-0.31,1.234-0.473,1.97-0.473
				c0.881,0,1.701,0.23,2.446,0.685c0.742,0.461,1.324,1.121,1.755,2.002c0.434,0.879,0.651,1.912,0.651,3.113
				c0,0.881-0.125,1.691-0.371,2.436c-0.248,0.738-0.597,1.359-1.028,1.857c-0.437,0.498-0.949,0.891-1.539,1.16
				c-0.599,0.269-1.229,0.402-1.914,0.402c-0.817,0-1.51-0.164-2.063-0.494c-0.56-0.322-1.088-0.815-1.597-1.449v4.311
				c0,1.262-0.463,1.893-1.377,1.893c-0.543,0-0.893-0.16-1.075-0.486c-0.169-0.33-0.259-0.799-0.259-1.428v-12.391
				c0-0.547,0.117-0.955,0.354-1.225c0.238-0.266,0.565-0.408,0.979-0.408c0.408,0,0.736,0.142,0.99,0.418
				C438.497,777.115,438.622,777.51,438.622,778.033 M444.251,782.205c0-0.758-0.116-1.406-0.35-1.947
				c-0.23-0.549-0.55-0.959-0.961-1.254c-0.404-0.291-0.863-0.435-1.363-0.435c-0.789,0-1.457,0.31-2,0.935
				c-0.545,0.625-0.817,1.541-0.817,2.758c0,1.139,0.271,2.027,0.811,2.668c0.541,0.631,1.205,0.947,2.006,0.947
				c0.478,0,0.92-0.141,1.328-0.412c0.409-0.279,0.735-0.693,0.977-1.25C444.129,783.662,444.251,782.988,444.251,782.205"/>
			<path style="fill:#FFFFFF;" d="M450.024,775.08c-0.401,0-0.739-0.125-1.021-0.363c-0.286-0.254-0.43-0.594-0.43-1.039
				c0-0.408,0.146-0.744,0.439-1.006c0.289-0.264,0.631-0.398,1.012-0.398c0.377,0,0.703,0.121,0.99,0.358
				c0.287,0.242,0.432,0.59,0.432,1.047c0,0.44-0.141,0.785-0.42,1.035C450.746,774.955,450.416,775.08,450.024,775.08
				 M451.446,778.051v8.303c0,0.574-0.137,1.004-0.409,1.297c-0.276,0.303-0.621,0.445-1.041,0.445c-0.425,0-0.759-0.15-1.028-0.453
				c-0.257-0.305-0.394-0.73-0.394-1.289v-8.223c0-0.561,0.137-0.99,0.394-1.273c0.27-0.297,0.604-0.439,1.028-0.439
				c0.42,0,0.765,0.142,1.041,0.439C451.31,777.141,451.446,777.545,451.446,778.051"/>
			<path style="fill:#FFFFFF;" d="M460.703,786.787l-2.529-4.17l-1.562,1.471v2.287c0,0.553-0.143,0.973-0.438,1.268
				c-0.283,0.303-0.625,0.453-1.002,0.453c-0.444,0-0.789-0.143-1.043-0.445c-0.248-0.293-0.379-0.723-0.379-1.297v-12.25
				c0-0.635,0.125-1.121,0.366-1.451c0.248-0.338,0.603-0.504,1.056-0.504c0.44,0,0.789,0.15,1.049,0.459
				c0.261,0.295,0.392,0.742,0.392,1.33v6.965l3.23-3.389c0.401-0.418,0.703-0.707,0.916-0.863c0.213-0.15,0.465-0.232,0.763-0.232
				c0.362,0,0.659,0.117,0.905,0.342c0.233,0.23,0.353,0.516,0.353,0.859c0,0.414-0.39,0.984-1.166,1.684l-1.524,1.395l2.942,4.633
				c0.213,0.344,0.375,0.604,0.47,0.783c0.094,0.176,0.144,0.352,0.144,0.512c0,0.457-0.125,0.813-0.375,1.08
				c-0.25,0.262-0.584,0.391-0.984,0.391c-0.35,0-0.62-0.088-0.809-0.283C461.284,787.619,461.022,787.279,460.703,786.787"/>
			<path style="fill:#FFFFFF;" d="M466.94,788.096c-0.436,0-0.807-0.139-1.123-0.42c-0.314-0.277-0.475-0.674-0.475-1.182
				c0-0.426,0.155-0.795,0.455-1.1c0.303-0.31,0.674-0.461,1.114-0.461s0.817,0.15,1.134,0.451c0.309,0.307,0.471,0.68,0.471,1.109
				c0,0.504-0.162,0.893-0.471,1.174C467.729,787.957,467.361,788.096,466.94,788.096"/>
			<path style="fill:#FFFFFF;" d="M481.222,784.539c0,0.361-0.108,0.742-0.321,1.146c-0.213,0.412-0.541,0.793-0.983,1.168
				c-0.435,0.365-0.986,0.66-1.654,0.887c-0.666,0.223-1.416,0.338-2.245,0.338c-1.779,0-3.166-0.518-4.162-1.553
				c-0.992-1.035-1.492-2.422-1.492-4.158c0-1.186,0.226-2.223,0.686-3.131c0.451-0.898,1.111-1.602,1.976-2.096
				c0.86-0.496,1.896-0.74,3.092-0.74c0.744,0,1.425,0.109,2.05,0.326c0.621,0.215,1.143,0.5,1.578,0.838
				c0.426,0.352,0.758,0.713,0.985,1.098c0.228,0.393,0.34,0.756,0.34,1.098c0,0.338-0.125,0.633-0.381,0.867
				c-0.259,0.242-0.571,0.363-0.929,0.363c-0.241,0-0.44-0.066-0.6-0.188c-0.158-0.125-0.335-0.322-0.531-0.596
				c-0.351-0.535-0.715-0.934-1.099-1.197c-0.379-0.272-0.866-0.402-1.455-0.402c-0.844,0-1.534,0.332-2.051,0.996
				c-0.519,0.658-0.78,1.572-0.78,2.717c0,0.537,0.071,1.041,0.204,1.49c0.127,0.449,0.322,0.836,0.576,1.158
				c0.254,0.316,0.556,0.555,0.912,0.723c0.36,0.172,0.754,0.252,1.18,0.252c0.578,0,1.07-0.137,1.478-0.404
				c0.418-0.266,0.777-0.674,1.095-1.219c0.174-0.32,0.358-0.574,0.56-0.754c0.203-0.18,0.453-0.275,0.748-0.275
				c0.354,0,0.647,0.135,0.873,0.4C481.103,783.953,481.222,784.246,481.222,784.539"/>
			<path style="fill:#FFFFFF;" d="M493.611,782.262c0,0.853-0.136,1.641-0.394,2.365c-0.274,0.723-0.656,1.346-1.164,1.857
				c-0.502,0.523-1.11,0.92-1.805,1.195c-0.708,0.277-1.496,0.416-2.371,0.416c-0.867,0-1.65-0.139-2.345-0.42
				c-0.69-0.277-1.297-0.682-1.804-1.201c-0.51-0.527-0.893-1.145-1.161-1.854c-0.255-0.715-0.392-1.5-0.392-2.359
				c0-0.869,0.142-1.668,0.399-2.393c0.267-0.727,0.651-1.34,1.151-1.848c0.5-0.512,1.097-0.91,1.806-1.186
				c0.711-0.275,1.494-0.418,2.345-0.418c0.87,0,1.659,0.142,2.371,0.422c0.704,0.281,1.307,0.684,1.817,1.193
				c0.508,0.529,0.891,1.143,1.153,1.855C493.477,780.607,493.611,781.396,493.611,782.262 M490.727,782.262
				c0-1.172-0.26-2.078-0.772-2.732c-0.514-0.658-1.207-0.984-2.077-0.984c-0.562,0-1.054,0.143-1.484,0.436
				c-0.43,0.293-0.752,0.717-0.987,1.291c-0.229,0.568-0.347,1.231-0.347,1.99c0,0.754,0.111,1.4,0.341,1.963
				c0.231,0.561,0.555,0.994,0.981,1.291c0.428,0.295,0.924,0.449,1.496,0.449c0.87,0,1.563-0.328,2.077-0.986
				C490.468,784.32,490.727,783.416,490.727,782.262"/>
			<path style="fill:#FFFFFF;" d="M504.56,782.471v3.818c0,0.603-0.132,1.049-0.406,1.353c-0.278,0.303-0.633,0.453-1.084,0.453
				c-0.435,0-0.791-0.15-1.051-0.453c-0.275-0.305-0.412-0.75-0.412-1.353v-4.576c0-0.723-0.024-1.287-0.072-1.69
				c-0.051-0.391-0.185-0.721-0.401-0.98c-0.219-0.254-0.564-0.385-1.03-0.385c-0.943,0-1.56,0.322-1.855,0.975
				c-0.295,0.639-0.45,1.568-0.45,2.779v3.877c0,0.594-0.136,1.045-0.401,1.35c-0.273,0.307-0.627,0.457-1.068,0.457
				c-0.434,0-0.793-0.15-1.071-0.457c-0.276-0.305-0.418-0.756-0.418-1.35v-8.219c0-0.535,0.129-0.949,0.373-1.231
				c0.256-0.279,0.582-0.422,0.987-0.422c0.394,0,0.72,0.137,0.986,0.396c0.262,0.26,0.391,0.625,0.391,1.09v0.271
				c0.504-0.59,1.035-1.035,1.601-1.311c0.572-0.285,1.197-0.426,1.897-0.426c0.72,0,1.34,0.146,1.857,0.43
				c0.521,0.293,0.945,0.731,1.283,1.307c0.489-0.586,1.008-1.025,1.561-1.311c0.555-0.279,1.168-0.426,1.84-0.426
				c0.783,0,1.465,0.162,2.033,0.467c0.564,0.305,0.985,0.754,1.267,1.318c0.249,0.525,0.368,1.344,0.368,2.457v5.608
				c0,0.603-0.137,1.049-0.409,1.353c-0.268,0.303-0.634,0.453-1.084,0.453c-0.435,0-0.789-0.15-1.064-0.457
				c-0.278-0.305-0.415-0.756-0.415-1.35v-4.832c0-0.617-0.029-1.109-0.08-1.484c-0.054-0.369-0.193-0.682-0.425-0.934
				c-0.233-0.25-0.588-0.381-1.055-0.381c-0.377,0-0.738,0.121-1.078,0.342c-0.34,0.223-0.604,0.529-0.799,0.898
				C504.669,780.387,504.56,781.242,504.56,782.471"/>
			<path style="fill-rule:evenodd;clip-rule:evenodd;fill:#FFFFFF;" d="M377.912,789.102c0,0-1.568-0.252-3.099-1.924
				c-1.539-1.688-1.798-3.473-1.798-3.473s1.953,0.459,3.355,0.615c2.475,0.281,4.701,0.125,5.75,0.01
				c2.272-0.252,3.481-0.668,3.975-0.789c2.902-0.699,5.693-2.576,5.693-2.576s0.354,2.18-1.285,4.6
				c-0.641,0.943-1.916,2.029-3.383,2.777C382.094,790.486,377.912,789.102,377.912,789.102"/>
			<path style="fill-rule:evenodd;clip-rule:evenodd;fill:#FFFFFF;" d="M389.781,776.705c-0.537-0.654-2.338-3.736-5.979-4.186
				c-0.929-0.111-5.853,0.082-8.806,2.813c-0.291,0.277-1.791,1.592-2.287,4.045c-0.389,1.894,0.246,4.027,0.246,4.027
				s3.275,0.684,5.742,0.619c3.912-0.096,5.883-0.443,7.928-1.063c3.011-0.91,5.146-2.438,5.146-2.438
				S390.324,777.363,389.781,776.705 M378.49,781.396c-1.654,0.106-3.078-1.139-3.18-2.789c-0.103-1.641,1.155-3.066,2.809-3.166
				c1.656-0.113,3.084,1.139,3.181,2.779C381.406,779.869,380.145,781.293,378.49,781.396 M386.943,779.273
				c-1.041,0.059-1.938-0.725-2.004-1.76c-0.064-1.033,0.73-1.93,1.77-1.992c1.039-0.07,1.941,0.719,2.004,1.75
				C388.779,778.309,387.982,779.205,386.943,779.273"/>
			<path style="fill-rule:evenodd;clip-rule:evenodd;fill:#FFFFFF;" d="M388.367,774.57l0.951-1.141c0,0,1.313,0.648,2.159,1.863
				c0.838,1.213,1.387,2.322,1.387,2.322l-1.569,0.953c0,0-0.485-1.17-1.217-2.109C389.351,775.525,388.367,774.57,388.367,774.57"
				/>
			<path style="fill-rule:evenodd;clip-rule:evenodd;fill:#FFFFFF;" d="M373.91,776.065c0,0-1.101,1.279-1.383,2.433
				c-0.277,1.16-0.222,2.555-0.222,2.555l-1.628-0.56c0,0-0.094-1.604,0.648-2.896c0.823-1.439,1.879-2.08,1.879-2.08
				L373.91,776.065z"/>
			<path style="fill-rule:evenodd;clip-rule:evenodd;fill:#FFFFFF;" d="M371.512,777.519c-0.267-0.172-0.291-0.584-0.5-0.853
				c-0.209-0.277-0.263-0.111-0.74-0.111c-0.478,0-0.492-0.227-0.627-0.344c-0.137-0.121-0.201,0.365-0.201,0.365
				s0.088,0.406,0.602,0.436c0.51,0.029,0.498-0.221,0.717,0.238c0.221,0.465,0.656,0.816,0.656,0.816
				S371.779,777.695,371.512,777.519"/>
			<path style="fill:#FFFFFF;" d="M295.867,786.516c0,0.672-0.422,1.113-1.008,1.113c-0.553,0-0.875-0.301-1.002-0.836
				c-0.377,0.615-1.154,0.916-1.838,0.916c-2.021,0-3.302-1.871-3.302-3.769c0-1.957,1.072-3.975,3.234-3.975
				c0.695,0,1.377,0.242,1.906,0.699v-2.734c0-0.668,0.418-1.109,1.002-1.109c0.586,0,1.008,0.441,1.008,1.109V786.516z
				 M292.285,781.809c-1.045,0-1.562,1.094-1.562,2.043c0,0.934,0.517,2.025,1.562,2.025c1.098,0,1.572-1.115,1.572-2.096
				C293.856,782.809,293.356,781.809,292.285,781.809"/>
			<path style="fill:#FFFFFF;" d="M298.621,784.51c0.144,0.984,0.963,1.449,1.902,1.449c1.027,0,1.736-0.805,2.27-0.805
				c0.429,0,0.816,0.426,0.816,0.865c0,0.863-1.779,1.69-3.272,1.69c-2.259,0-3.761-1.641-3.761-3.857
				c0-2.035,1.476-3.887,3.593-3.887c2.174,0,3.61,1.977,3.61,3.652c0,0.598-0.266,0.893-0.877,0.893H298.621z M301.773,783.17
				c-0.109-0.879-0.668-1.529-1.604-1.529c-0.89,0-1.492,0.68-1.587,1.529H301.773z"/>
			<path style="fill:#FFFFFF;" d="M308.714,782.307c-0.377,0-1.143-0.59-1.799-0.59c-0.361,0-0.683,0.17-0.683,0.565
				c0,0.933,3.484,0.793,3.484,3.078c0,1.336-1.127,2.35-2.859,2.35c-1.127,0-2.797-0.635-2.797-1.541
				c0-0.305,0.304-0.887,0.861-0.887c0.781,0,1.129,0.678,2.074,0.678c0.615,0,0.797-0.197,0.797-0.574
				c0-0.92-3.482-0.779-3.482-3.078c0-1.392,1.129-2.342,2.718-2.342c0.987,0,2.506,0.461,2.506,1.453
				C309.534,781.873,309.188,782.307,308.714,782.307"/>
			<path style="fill:#FFFFFF;" d="M312.531,778.141c0,0.629-0.5,1.158-1.129,1.158c-0.6,0-1.129-0.545-1.129-1.158
				c0-0.57,0.529-1.1,1.129-1.1C312,777.041,312.531,777.553,312.531,778.141 M310.398,781.168c0-0.67,0.418-1.119,1.004-1.119
				c0.584,0,1.002,0.449,1.002,1.119v5.348c0,0.674-0.418,1.113-1.002,1.113c-0.586,0-1.004-0.439-1.004-1.113V781.168z"/>
			<path style="fill:#FFFFFF;" d="M320.376,786.961c0,2.412-1.576,3.629-3.861,3.629c-0.821,0-3.164-0.408-3.164-1.508
				c0-0.375,0.418-0.879,0.812-0.879c0.639,0,1.35,0.623,2.506,0.623c0.978,0,1.699-0.563,1.699-1.588v-0.473h-0.027
				c-0.416,0.613-1.102,0.943-2.02,0.943c-2.103,0-3.093-1.846-3.093-3.842c0-2.019,1.277-3.902,3.3-3.902
				c0.686,0,1.461,0.307,1.84,0.918c0.127-0.525,0.445-0.834,1.004-0.834c0.584,0,1.004,0.449,1.004,1.119V786.961z
				 M316.792,781.809c-1.043,0-1.557,1.084-1.557,2.018c0,1.074,0.514,2.051,1.557,2.051c1.072,0,1.576-1.008,1.576-1.984
				C318.369,782.922,317.896,781.809,316.792,781.809"/>
			<path style="fill:#FFFFFF;" d="M321.519,781.168c0-0.67,0.416-1.119,1.002-1.119c0.514,0,0.852,0.277,0.918,0.744
				c0.393-0.547,0.988-0.828,1.937-0.828c1.575,0,2.745,1.004,2.745,2.701v3.85c0,0.674-0.413,1.113-1,1.113
				c-0.582,0-1.006-0.439-1.006-1.113v-3.496c0-0.934-0.582-1.379-1.309-1.379c-0.824,0-1.281,0.6-1.281,1.379v3.496
				c0,0.674-0.42,1.113-1.004,1.113c-0.586,0-1.002-0.439-1.002-1.113V781.168z"/>
			<path style="fill:#FFFFFF;" d="M330.881,784.51c0.14,0.984,0.961,1.449,1.896,1.449c1.033,0,1.742-0.805,2.27-0.805
				c0.433,0,0.826,0.426,0.826,0.865c0,0.863-1.787,1.69-3.278,1.69c-2.259,0-3.761-1.641-3.761-3.857
				c0-2.035,1.476-3.887,3.593-3.887c2.176,0,3.61,1.977,3.61,3.652c0,0.598-0.266,0.893-0.877,0.893H330.881z M334.031,783.17
				c-0.111-0.879-0.67-1.529-1.604-1.529c-0.892,0-1.492,0.68-1.587,1.529H334.031z"/>
			<path style="fill:#FFFFFF;" d="M343.603,786.516c0,0.672-0.418,1.113-1.006,1.113c-0.554,0-0.871-0.301-1-0.836
				c-0.379,0.615-1.156,0.916-1.84,0.916c-2.019,0-3.3-1.871-3.3-3.769c0-1.957,1.072-3.975,3.234-3.975
				c0.693,0,1.377,0.242,1.906,0.699v-2.734c0-0.668,0.418-1.109,1-1.109c0.588,0,1.006,0.441,1.006,1.109V786.516z
				 M340.023,781.809c-1.045,0-1.561,1.094-1.561,2.043c0,0.934,0.516,2.025,1.561,2.025c1.098,0,1.574-1.115,1.574-2.096
				C341.597,782.809,341.095,781.809,340.023,781.809"/>
			<path style="fill:#FFFFFF;" d="M348.478,777.93c0-0.668,0.422-1.109,1.008-1.109c0.586,0,1.002,0.441,1.002,1.109v2.734
				c0.531-0.457,1.211-0.699,1.908-0.699c2.16,0,3.232,2.018,3.232,3.977c0,1.896-1.277,3.768-3.302,3.768
				c-0.682,0-1.463-0.301-1.838-0.916c-0.127,0.535-0.446,0.836-1.002,0.836c-0.586,0-1.008-0.439-1.008-1.113V777.93z
				 M352.062,785.877c1.045,0,1.559-1.092,1.559-2.025c0-0.949-0.514-2.043-1.559-2.043c-1.072,0-1.574,1-1.574,1.973
				C350.488,784.762,350.964,785.877,352.062,785.877"/>
			<path style="fill:#FFFFFF;" d="M355.978,781.428c-0.057-0.15-0.1-0.307-0.1-0.514c0-0.506,0.53-0.865,0.95-0.865
				c0.484,0,0.834,0.268,1.004,0.709l1.375,3.781l1.48-3.781c0.168-0.441,0.514-0.709,1.004-0.709c0.419,0,0.945,0.359,0.945,0.865
				c0,0.207-0.026,0.363-0.096,0.514l-3.359,8.363c-0.162,0.416-0.473,0.799-0.947,0.799c-0.682,0-1.043-0.438-1.043-0.863
				c0-0.203,0.057-0.408,0.121-0.59l0.881-2.176L355.978,781.428z"/>
		</g>
	</g>
	<g>
		<rect x="50" y="62" style="fill:#CC4D3C;" width="412" height="293"/>
		<rect x="71" y="76" style="fill:#00B089;" width="370" height="265"/>
		<path style="fill:#CC4D3C;" d="M475,367c0,2.209-1.791,4-4,4H42c-2.209,0-4-1.791-4-4v-19c0-2.209,1.791-4,4-4h429
			c2.209,0,4,1.791,4,4V367z"/>
		<path style="fill:#FFFFFF;" d="M147,340c0,2.209-1.791,4-4,4h-37c-2.209,0-4-1.791-4-4v-2c0-2.209,1.791-4,4-4h37
			c2.209,0,4,1.791,4,4V340z"/>
	</g>
</g>
<g id="objects">
	<g>
		<g>
			<rect x="597" y="290" style="fill:#F3EEE1;" width="52" height="22"/>
			<path style="fill:#F3EEE1;" d="M576,258.75c0,24.991,21.377,45.25,47.191,45.25h0.516C649.521,304,670,283.741,670,258.75v-40.5
				c0-24.991-20.479-35.25-46.293-35.25h-0.516C597.377,183,576,193.259,576,218.25V258.75z"/>
			<path style="fill:#FE7F6E;" d="M635,281.333c0-0.736-0.598-1.333-1.334-1.333h-22.332c-0.736,0-1.334,0.597-1.334,1.333v0.333
				c0,0.736,0.598,1.333,1.334,1.333h22.332c0.736,0,1.334-0.597,1.334-1.333V281.333z"/>
			<path style="fill:#D6CCC2;" d="M630.5,255l-4.5-13.167c0-1.564-1.269-2.833-2.833-2.833h-0.334c-1.564,0-2.833,1.269-2.833,2.833
				L615.5,255c-2.485,0-4.5,2.015-4.5,4.5s2.015,4.5,4.5,4.5h15c2.485,0,4.5-2.015,4.5-4.5S632.985,255,630.5,255z"/>
			<circle style="fill:#FFFFFF;" cx="597.5" cy="234.625" r="6.938"/>
			<circle style="fill:#FFFFFF;" cx="644.5" cy="234.625" r="6.938"/>
			<g>
				<circle style="fill:#00616D;" cx="641.699" cy="234.625" r="3.5"/>
				<circle style="fill:#00616D;" cx="595.199" cy="234.625" r="3.5"/>
			</g>
			<g>
				<rect x="663" y="198" style="fill:#00616D;" width="7" height="28"/>
				<rect x="576" y="198" style="fill:#00616D;" width="7" height="28"/>
				<path style="fill:#00616D;" d="M641,176c0-7.18-5.82-13-13-13h-19c-7.18,0-13,5.82-13,13l0,0c0,7.18,5.82,13,13,13h19
					C635.18,189,641,183.18,641,176L641,176z"/>
				<circle style="fill:#00616D;" cx="597.699" cy="182.75" r="14"/>
				<circle style="fill:#00616D;" cx="643.699" cy="190.75" r="14"/>
				<path style="fill:#00616D;" d="M642.674,192.541c0,8.721,7.169,15.79,16.013,15.79c8.843,0,16.013-7.07,16.013-15.79
					c0-8.721-7.17-15.791-16.013-15.791C649.843,176.75,642.674,183.82,642.674,192.541z"/>
				<circle style="fill:#00616D;" cx="588.699" cy="192.75" r="16.5"/>
				<circle style="fill:#00616D;" cx="595.699" cy="192.75" r="16.5"/>
				<path style="fill:#00616D;" d="M619.449,173.75c0,9.113,9.141,16.5,20.416,16.5c11.276,0,20.417-7.387,20.417-16.5
					s-9.141-16.5-20.417-16.5C628.59,157.25,619.449,164.637,619.449,173.75z"/>
			</g>
			<path style="fill:#00616D;" d="M638,281.75c0-3.176-2.574-5.75-5.75-5.75h-18.5c-3.176,0-5.75,2.574-5.75,5.75v0.5
				c0,3.176,2.574,5.75,5.75,5.75h18.5c3.176,0,5.75-2.574,5.75-5.75V281.75z M631.108,303.435c-1.41,0.363-2.819,0.565-4.159,0.565
				h-3.242h-0.516h-3.242c-1.396,0-2.899-0.212-4.42-0.606C593.281,299.901,576,281.476,576,259c0,0,12.002,9.182,26,15.103
				c0-0.061,0-0.103,0-0.103c0-2.209,2.24-4,4.449-4h34c2.187,0,3.519,1.756,3.546,3.934C658.278,268.009,670,259,670,259
				C670,281.556,653.327,300.036,631.108,303.435z"/>
		</g>
		<g>
			<g>
				<path style="fill:#D6CCC2;" d="M404.211,414.221c0,0,6.178,2.457,19.08-0.66l8.006,6.898l9.26-10.75l-13.809-11.896
					L404.211,414.221z"/>
				<polygon style="fill:#FFFFFF;" points="420.723,402.732 430.353,391.556 243.704,211.689 240,215.988 				"/>
				<g>
					<path style="fill:#D6CCC2;" d="M375.432,389.693c1.373,2.5,4.51,3.412,7.008,2.039l17-8.254c2.498-1.37,3.412-4.51,2.041-7.006
						l0,0c-1.373-2.5-4.511-3.413-7.01-2.041l-17,8.254C374.974,384.058,374.06,387.196,375.432,389.693L375.432,389.693z"/>
				</g>
				<g>
					<path style="fill:#D6CCC2;" d="M383.322,397.37c1.373,2.498,4.51,3.413,7.008,2.04l17-8.256c2.5-1.371,3.412-4.508,2.039-7.007
						l0,0c-1.371-2.499-4.509-3.41-7.007-2.041l-17,8.256C382.863,391.734,381.95,394.872,383.322,397.37L383.322,397.37z"/>
				</g>
				<g>
					<path style="fill:#F3EEE1;" d="M395.471,385.205l2.87-9.525c0.411-1.406,3.165-4.111,3.583-4.6l7.321-8.498
						c2.015-2.339,5.561-3.146,7.931-1.105l3.026,2.608l21.696,18.69c3.814,3.285,5.833,7.273,3.025,11.219l5.264,4.534
						l-10.185,11.825l-9.52-8.201l-2.368-2.039c-13.362-11.511-17.091-24.097-17.091-24.097s-1.863,2.1-3.133,3.978
						c-1.336,1.976-2.496,8.08-2.496,8.08c-0.797,2.738-3.668,4.316-6.404,3.521C396.253,390.798,394.674,387.941,395.471,385.205z"
						/>
				</g>
				<g>
					<path style="fill:#D6CCC2;" d="M391.43,404.795c1.372,2.499,4.51,3.411,7.008,2.039l17-8.254c2.5-1.371,3.414-4.51,2.041-7.009
						l0,0c-1.372-2.499-4.51-3.411-7.008-2.039l-17,8.255C390.973,399.158,390.059,402.296,391.43,404.795L391.43,404.795z"/>
				</g>
				<g>
					<path style="fill:#D6CCC2;" d="M400.227,411.932c1.37,2.498,4.508,3.412,7.008,2.041l17-8.256
						c2.497-1.371,3.411-4.509,2.039-7.008l0,0c-1.372-2.499-4.51-3.412-7.009-2.042l-16.999,8.257
						C399.768,406.297,398.853,409.433,400.227,411.932L400.227,411.932z"/>
				</g>
			</g>
			<g>
				
					<rect x="428.327" y="406.476" transform="matrix(0.646 -0.7633 0.7633 0.646 -157.2773 483.9094)" style="fill:#FFFFFF;" width="29.549" height="10.104"/>
				<circle style="fill:#4D4D4D;" cx="436.449" cy="419.501" r="2.25"/>
			</g>
			<path style="fill:#008D9B;" d="M702.046,556l-4.097,244h-65l-11.647-183.454L606.449,800h-72l8.75-224l-2.166-144.615
				l-28.584,53.147l-77.5-56.969l22-26.438l37.112,28.174L531.949,344l65.5-28h52l75.5,32.75l31.5,136l-55,71.25 M701,421v79
				l17.5-21.5L701,421z"/>
			<polygon style="fill:#FFFFFF;" points="603.449,435 643.449,435 649.449,312 597.449,312 			"/>
			<polygon style="fill:#634F68;" points="612.449,437 623.282,487 633.449,437 629.449,334 616.449,334 			"/>
			<polygon style="fill:#00777E;" points="649.449,316 670.449,337 663.949,356 675.949,364.5 623.282,489 			"/>
			<polygon style="fill:#00777E;" points="597.782,316 576.782,337 583.282,356 571.282,364.5 623.949,489 			"/>
			<rect x="573" y="452" style="fill:#00777E;" width="30" height="9"/>
		</g>
		<rect x="615" y="318" style="fill:#634F68;" width="15" height="17"/>
		<polygon style="fill:#CCCCCC;" points="597,316 616.225,332 623.17,318 629.002,332 650,316 650,312 597,312 		"/>
	</g>
	<g>
		<rect y="556" style="fill:#4D4D4D;" width="800" height="42"/>
		<g>
			<rect x="649" y="587" style="fill:#4D4D4D;" width="42" height="213"/>
			<rect x="109" y="587" style="fill:#4D4D4D;" width="42" height="213"/>
		</g>
	</g>
	<g>
		<g>
			<rect x="346" y="463" style="fill:#C78B3F;" width="24" height="93"/>
			<rect x="346" y="476" style="fill:#FF7246;" width="24" height="27"/>
		</g>
		<g>
			<rect x="375" y="452" style="fill:#008D9B;" width="28" height="104"/>
			<rect x="375" y="463" style="fill:#FFFFFF;" width="28" height="19"/>
			<rect x="375" y="536" style="fill:#FFFFFF;" width="28" height="8"/>
			<path style="fill:#FF7246;" d="M395.034,472.091c0,3.323-2.693,6.017-6.017,6.017c-3.322,0-6.016-2.693-6.016-6.017
				c0-3.322,2.693-6.017,6.016-6.017C392.341,466.074,395.034,468.769,395.034,472.091z"/>
		</g>
		<g>
			
				<rect x="414.311" y="470.909" transform="matrix(0.9619 -0.2734 0.2734 0.9619 -124.0809 135.4108)" style="fill:#985158;" width="18.908" height="83.91"/>
			
				<rect x="414.633" y="485.046" transform="matrix(0.9619 -0.2734 0.2734 0.9619 -124.374 135.5345)" style="fill:#C78B3F;" width="18.909" height="57.909"/>
		</g>
	</g>
	<g>
		<rect x="252" y="525" style="fill:#FFD344;" width="28" height="17"/>
		<g>
			
				<rect x="189.854" y="460.458" transform="matrix(0.5615 -0.8275 0.8275 0.5615 -268.9525 424.2877)" style="fill:#FF682E;" width="151.981" height="10.892"/>
		</g>
		<g>
			<path style="fill:#FF682E;" d="M277.073,402.329l-5.396,7.955c27.578,3.505,48.98,27.103,48.98,55.62
				c0,30.923-25.162,56.083-56.083,56.083c-21.075,0-39.464-11.689-49.045-28.917l-5.378,7.934
				c11.553,17.85,31.624,29.693,54.423,29.693c35.729,0,64.796-29.065,64.796-64.793
				C329.37,434.448,306.838,408.172,277.073,402.329z"/>
		</g>
		<path style="fill:#008B99;" d="M310.311,465.904c0,25.262-20.479,45.735-45.737,45.735c-25.26,0-45.738-20.474-45.738-45.735
			s20.479-45.74,45.738-45.74C289.832,420.164,310.311,440.643,310.311,465.904z"/>
		<path style="fill:#C48D44;" d="M304.141,556c0-10.26-17.064-17.24-38.115-17.24c-21.049,0-38.113,6.98-38.113,17.24H304.141z"/>
		<g>
			<path style="fill:#FFD344;" d="M267.914,420.285L262,424.297v12.406l3.424,4.137l6.035,4.889l8.281-1.881l6.772,1.881
				l2.259,7.895l1.881,9.024c0,0-3.008,4.135-2.631,5.262c0.375,1.129,5.264,8.486,5.264,8.486l3.008,6.605h7.518l4.276-2.861
				c1.438-4.44,2.224-9.104,2.224-14.023C310.311,441.815,291.84,421.762,267.914,420.285z"/>
			<path style="fill:#FFD344;" d="M249.881,495h5.811l-0.83-5.451l-4.98-2.549h9.547l5.051-5.842L255,479.342v-8.301l-4.843,2.49
				l-7.333-6.227l-2.906,4.566l-1.66,14.818l-4.15-7.799l-5.915-1.629l-5.708-4.574l2.906-5.408l9.962-3.346l4.566-5.445
				l-2.075-6.881L232.447,455h-3.736h-6.641l-2.516,3.004c-0.463,2.613-0.719,5.365-0.719,8.111
				c0,16.551,8.793,31.082,21.961,39.111l2.857-4.996L249.881,495z"/>
		</g>
	</g>
	<g>
		<g>
			
				<rect x="120.631" y="488.949" transform="matrix(0.8137 -0.5813 0.5813 0.8137 -263.227 166.3952)" style="fill:#FFFFFF;" width="14.675" height="9.784"/>
			
				<rect x="79.454" y="434.246" transform="matrix(0.8136 -0.5814 0.5814 0.8136 -239.464 134.4927)" style="fill:#008C9B;" width="21.198" height="13.046"/>
			
				<rect x="90.884" y="434.429" transform="matrix(0.8137 -0.5813 0.5813 0.8137 -248.6646 146.8464)" style="fill:#C78C3C;" width="27.72" height="53.81"/>
			
				<rect x="108.894" y="479.206" transform="matrix(0.8137 -0.5813 0.5813 0.8137 -259.9677 162.0178)" style="fill:#008C9B;" width="27.721" height="14.674"/>
		</g>
		<g>
			<rect x="99" y="522" style="fill:#FF7156;" width="35" height="31"/>
			<path style="fill:#008D9B;" d="M66.941,497.078c0-17.833,14.059-32.343,32.059-32.343v11.414c-13,0-20.645,9.385-20.645,20.926
				c0,11.53,8.153,20.925,21.178,20.925H150v12H99.551c-0.012,0,0,0-0.012,0l-3.374-0.389l0,0
				C79.776,527.977,66.941,513.817,66.941,497.078z"/>
			<rect x="67" y="550" style="fill:#008D9B;" width="83" height="6"/>
			<path style="fill:#FF7156;" d="M83.221,469.547c0,6.95,5.634,12.585,12.584,12.585c6.951,0,12.587-5.635,12.587-12.585
				c0-6.951-5.636-12.587-12.587-12.587C88.854,456.96,83.221,462.596,83.221,469.547z"/>
			<path style="fill:#FFFFFF;" d="M87.014,469.547c0,4.855,3.936,8.792,8.791,8.792c4.856,0,8.794-3.937,8.794-8.792
				c0-4.857-3.938-8.792-8.794-8.792C90.949,460.755,87.014,464.69,87.014,469.547z"/>
		</g>
	</g>
</g>
</svg>
